<?xml version="1.0" encoding="UTF-8" standalone="no"?>
<!-- Created with Inkscape (http://www.inkscape.org/) -->

<svg
   version="1.2"
   width="217.834"
   height="192.41901"
   id="svg2"
   sodipodi:docname="ES_P1e.svg"
   inkscape:version="1.2.1 (9c6d41e410, 2022-07-14)"
   xmlns:inkscape="http://www.inkscape.org/namespaces/inkscape"
   xmlns:sodipodi="http://sodipodi.sourceforge.net/DTD/sodipodi-0.dtd"
   xmlns="http://www.w3.org/2000/svg"
   xmlns:svg="http://www.w3.org/2000/svg"
   xmlns:rdf="http://www.w3.org/1999/02/22-rdf-syntax-ns#"
   xmlns:cc="http://creativecommons.org/ns#"
   xmlns:dc="http://purl.org/dc/elements/1.1/">
  <sodipodi:namedview
     id="namedview25"
     pagecolor="#ffffff"
     bordercolor="#666666"
     borderopacity="1.0"
     inkscape:showpageshadow="2"
     inkscape:pageopacity="0.0"
     inkscape:pagecheckerboard="0"
     inkscape:deskcolor="#d1d1d1"
     showgrid="false"
     inkscape:zoom="4.0640476"
     inkscape:cx="108.8816"
     inkscape:cy="96.209503"
     inkscape:window-width="1920"
     inkscape:window-height="1027"
     inkscape:window-x="-8"
     inkscape:window-y="-8"
     inkscape:window-maximized="1"
     inkscape:current-layer="Capa_1" />
  <metadata
     id="metadata3087">
    <rdf:RDF>
      <cc:Work
         rdf:about="">
        <dc:format>image/svg+xml</dc:format>
        <dc:type
           rdf:resource="http://purl.org/dc/dcmitype/StillImage" />
      </cc:Work>
    </rdf:RDF>
  </metadata>
  <defs
     id="defs3085" />
  <g
     id="Capa_1">
    <path
       d="M 14.125,192.418 C 6.32,192.418 0,186.098 0,178.297 0,175.754 0.672,173.379 1.84,171.32 L 96.668,7.096 C 99.104,2.859 103.676,0 108.916,0 c 5.238,0 9.813,2.859 12.254,7.096 l 94.82,164.225 c 1.172,2.059 1.844,4.434 1.844,6.977 0,7.801 -6.32,14.121 -14.121,14.121 H 14.125"
       id="path3077"
       style="fill:#e41408" />
    <path
       d="m 21.881,173.887 87.035,-150.707 87.035,150.707 -174.07,0"
       id="polyline3079"
       style="fill:#ffffff" />
    <path
       d="M 108.916,63.557 91.705,80.764 v 48.74859 H 70.08 v 14.476 H 91.705 V 164.176 l 17.211,-17.211 17.215,17.211 0.49212,-54.63583 h 21.621 V 95.064175 h -21.621 L 126.131,80.764 108.916,63.557"
       id="polyline3081"
       style="fill:#1c1d20;fill-rule:evenodd"
       sodipodi:nodetypes="ccccccccccccccc" />
  </g>
</svg>
