<?xml version="1.0" encoding="UTF-8" standalone="no"?>
<!-- Created with Inkscape (http://www.inkscape.org/) -->

<svg
   version="1.2"
   width="217.834"
   height="192.41901"
   id="svg2"
   sodipodi:docname="ES_P8.svg"
   inkscape:version="1.2.1 (9c6d41e410, 2022-07-14)"
   xmlns:inkscape="http://www.inkscape.org/namespaces/inkscape"
   xmlns:sodipodi="http://sodipodi.sourceforge.net/DTD/sodipodi-0.dtd"
   xmlns="http://www.w3.org/2000/svg"
   xmlns:svg="http://www.w3.org/2000/svg"
   xmlns:rdf="http://www.w3.org/1999/02/22-rdf-syntax-ns#"
   xmlns:cc="http://creativecommons.org/ns#"
   xmlns:dc="http://purl.org/dc/elements/1.1/">
  <sodipodi:namedview
     id="namedview25"
     pagecolor="#ffffff"
     bordercolor="#666666"
     borderopacity="1.0"
     inkscape:showpageshadow="2"
     inkscape:pageopacity="0.0"
     inkscape:pagecheckerboard="0"
     inkscape:deskcolor="#d1d1d1"
     showgrid="false"
     inkscape:zoom="4.0640476"
     inkscape:cx="108.8816"
     inkscape:cy="96.209503"
     inkscape:window-width="1920"
     inkscape:window-height="1027"
     inkscape:window-x="-8"
     inkscape:window-y="-8"
     inkscape:window-maximized="1"
     inkscape:current-layer="Capa_1" />
  <metadata
     id="metadata3087">
    <rdf:RDF>
      <cc:Work
         rdf:about="">
        <dc:format>image/svg+xml</dc:format>
        <dc:type
           rdf:resource="http://purl.org/dc/dcmitype/StillImage" />
      </cc:Work>
    </rdf:RDF>
  </metadata>
  <defs
     id="defs3085" />
  <g
     id="Capa_1">
    <path
       d="M 14.125,192.418 C 6.32,192.418 0,186.098 0,178.297 0,175.754 0.672,173.379 1.84,171.32 L 96.668,7.096 C 99.104,2.859 103.676,0 108.916,0 c 5.238,0 9.813,2.859 12.254,7.096 l 94.82,164.225 c 1.172,2.059 1.844,4.434 1.844,6.977 0,7.801 -6.32,14.121 -14.121,14.121 H 14.125"
       id="path3077"
       style="fill:#e41408" />
    <path
       d="m 21.881,173.887 87.035,-150.707 87.035,150.707 -174.07,0"
       id="polyline3079"
       style="fill:#ffffff" />
    <g
       id="g454"
       transform="matrix(1.2274534,0,0,1.2274534,-25.359081,-27.36607)"
       style="stroke-width:0.814695">
      <path
         d="M 110.0255,148.6608 H 80.121152 v 3.606 h 59.817268 v -3.606 H 110.0255"
         id="polyline3348"
         style="fill:#1c1d20;fill-rule:evenodd;stroke-width:0.814694" />
      <path
         d="m 110.0255,81.370117 c 0,0 -5.76576,0.377095 -6.70422,6.260686 -0.19283,0 -8.377575,0 -8.377575,0 0,0 -7.976925,0.37711 -7.976925,7.61698 -0.201408,-0.20141 0,35.537247 0,35.537247 0,0 -1.1463,5.52364 5.322235,9.51532 0,0.38566 -12.170004,17.8779 -12.170004,17.8779 h 6.646361 l 8.938953,-12.9392 h 28.640215 l 8.93038,12.9392 h 6.66136 c 0,0 -12.17001,-17.49224 -12.17001,-17.8779 6.47067,-3.99168 5.32224,-9.51532 5.32224,-9.51532 0,0 0.18426,-35.738657 0,-35.537247 0,-7.23987 -7.97692,-7.61698 -7.97692,-7.61698 0,0 -8.17619,0 -8.36902,0 -0.95133,-5.885729 -6.71707,-6.260686 -6.71707,-6.260686"
         id="path3350"
         style="fill:#1c1d20;fill-rule:evenodd;stroke-width:0.814694" />
      <path
         d="M 110.0255,98.660943 H 95.320805 c 0,0 -3.98311,0.57851 -3.98311,3.983107 v 9.03965 c 0,0 -0.5785,3.99168 3.98311,3.99168 0,0.18426 14.704695,0 14.704695,0 0,0 14.69613,0.18426 14.69613,0 4.57018,0 4.00025,-3.99168 4.00025,-3.99168 v -9.03965 c 0,-3.406747 -4.00025,-3.983107 -4.00025,-3.983107 H 110.0255"
         id="path3352"
         style="fill:#ffffff;fill-rule:evenodd;stroke-width:0.814694" />
      <path
         d="m 105.33748,88.391433 c 0,-2.58612 2.09975,-4.694449 4.68802,-4.694449 2.60327,0 4.68802,2.108329 4.68802,4.694449 0,2.60327 -2.08475,4.68802 -4.68802,4.68802 -2.58613,-0.002 -4.68802,-2.08475 -4.68802,-4.68802"
         id="path3354"
         style="fill:#ffffff;stroke-width:0.814694" />
      <path
         d="m 91.335545,130.03727 c 0,-2.73611 2.20903,-4.94728 4.94728,-4.94728 2.72112,0 4.938705,2.20903 4.938705,4.94728 0,2.72753 -2.217585,4.9387 -4.938705,4.9387 -2.7361,0 -4.94728,-2.20902 -4.94728,-4.9387"
         id="path3356"
         style="fill:#ffffff;stroke-width:0.814694" />
      <path
         d="m 118.82947,130.03727 c 0,-2.73611 2.2176,-4.94728 4.94727,-4.94728 2.72968,0 4.94728,2.20903 4.94728,4.94728 0,2.72753 -2.2176,4.9387 -4.94728,4.9387 -2.72967,0 -4.94727,-2.20902 -4.94727,-4.9387"
         id="path3358"
         style="fill:#ffffff;stroke-width:0.814694" />
    </g>
  </g>
</svg>
