<?xml version="1.0" encoding="utf-8"?>
<svg  xmlns="http://www.w3.org/2000/svg"
	  viewBox="0 0 48.103 48.102">
	<g>
				<g id="Capa_1">
					<path fill="#E41408" d="M0,24.05C0,10.768,10.768,0,24.052,0c13.283,0,24.051,10.768,24.051,24.05
						c0,13.283-10.768,24.052-24.051,24.052C10.768,48.102,0,37.333,0,24.05"/>
					<path fill="#FFFFFF" d="M6.413,24.05c0-9.74,7.896-17.638,17.639-17.638c9.741,0,17.638,7.898,17.638,17.638
						c0,9.742-7.896,17.638-17.638,17.638C14.31,41.688,6.413,33.792,6.413,24.05"/>
					<path fill="#1C1D20" d="M11.224,26.457c0-2.51,2.034-4.543,4.543-4.543c2.51,0,4.544,2.034,4.544,4.543
						c0,2.508-2.034,4.541-4.544,4.541C13.258,30.998,11.224,28.964,11.224,26.457"/>
					<path fill="#1C1D20" d="M20.09,13.85h0.354l1.603-0.213l0.024,1.628l-1.722,1.295l0.235,0.966l4.125-3.016
						l0.024-1.462c0,0-0.331-1.743-2.404-1.743c0-0.024-2.051-0.072-2.263,1.79C20.042,13.119,20.09,13.85,20.09,13.85"/>
					<path fill="#1C1D20" d="M27.793,26.457c0-2.51,2.034-4.543,4.543-4.543s4.543,2.034,4.543,4.543
						c0,2.508-2.034,4.541-4.543,4.541S27.793,28.964,27.793,26.457"/>
					<path fill="#1C1D20" d="M19.901,18.588h-2.356c0,0-0.967-0.118-0.967,0.989c0,0-0.095,1.037,0.848,1.037
						h3.418l1.886-1.39c0,0,0.164-0.141,0.4,0.023l1.862,1.343c0,0,0.307,0.237-0.048,0.378c0-0.023-3.157,1.414-3.157,1.414
						s-1.062,0.448-0.472,1.555l2.923,5.209c0,0,0.637,0.73,1.367,0.188c0.022-0.022,0.896-0.518,0.424-1.412
						c-0.023,0-1.862-3.513-1.862-3.513s-0.33-0.519,0.212-0.778c0.023-0.023,4.454-1.979,4.454-1.979s0.731-0.613,0.071-1.485
						c-0.024-0.024-3.37-4.596-3.37-4.596s-0.542-0.66-1.461-0.095C24.049,15.476,19.901,18.588,19.901,18.588"/>
					<path fill="#FFFFFF" d="M12.56,26.457c0-1.771,1.437-3.208,3.207-3.208c1.772,0,3.207,1.436,3.207,3.208
						c0,1.771-1.435,3.207-3.207,3.207C13.996,29.664,12.56,28.227,12.56,26.457"/>
					<path fill="#FFFFFF" d="M29.129,26.457c0-1.771,1.437-3.208,3.207-3.208c1.771,0,3.206,1.436,3.206,3.208
						c0,1.771-1.435,3.207-3.206,3.207C30.565,29.664,29.129,28.227,29.129,26.457"/>
				</g>
			</g>
	</svg>
