<svg xmlns="http://www.w3.org/2000/svg" viewBox="0 0 585.86 585.86"><defs><style>.cls-1,.cls-2,.cls-3{fill-rule:evenodd;}.cls-2,.cls-4{fill:#fff;}.cls-3{fill:#1e2460;}</style></defs><g id="Capa_2" data-name="Capa 2"><g id="Capa_1-2" data-name="Capa 1"><path id="path2683" class="cls-1" d="M290.3,0C128.54,1.44-1.44,133.77,0,295.56S133.79,587.33,295.56,585.85,587.3,452.1,585.85,290.3,452.07-1.47,290.3,0Z"/><path id="path2685" class="cls-2" d="M290.38,2.94C130.22,4.38,1.55,135.38,3,295.53S135.42,584.35,295.58,582.92,584.4,450.48,583,290.33,450.53,1.5,290.38,2.94Z"/><path id="path1877" class="cls-3" d="M577.11,290.38c1.41,156.92-124.66,285.27-281.58,286.68S10.26,452.4,8.85,295.48,133.51,10.21,290.43,8.8,575.7,133.46,577.11,290.38Z"/><polygon class="cls-4" points="292.79 64.84 172.19 273.86 245.32 273.86 245.32 521.38 252.57 521.38 332.97 521.38 340.25 521.38 340.25 273.86 413.38 273.86 292.79 64.84"/></g></g></svg>