<?xml version="1.0" encoding="UTF-8"?>
<svg xmlns="http://www.w3.org/2000/svg" viewBox="0 0 53.838 53.839">
		<g id="Capa_1">
			<path fill="#FFFFFF" d="M53.74,50.758c0,1.646-1.334,2.981-2.98,2.981H3.08c-1.646,0-2.981-1.336-2.981-2.981     V3.079c0-1.645,1.335-2.98,2.981-2.98h47.679c1.646,0,2.98,1.335,2.98,2.98V50.758z"></path>
			<path fill="none" stroke="#1C1D20" stroke-width="0.198" stroke-miterlimit="3.864" d="M53.74,50.758     c0,1.646-1.334,2.981-2.98,2.981H3.08c-1.646,0-2.981-1.336-2.981-2.981V3.079c0-1.645,1.335-2.98,2.981-2.98h47.679     c1.646,0,2.98,1.335,2.98,2.98V50.758z"></path>
			<path fill="#19408B" d="M52.428,3.079c0-0.92-0.747-1.669-1.669-1.669H3.08c-0.923,0-1.669,0.749-1.669,1.669     v47.679c0,0.922,0.746,1.669,1.669,1.669h47.679c0.922,0,1.669-0.747,1.669-1.669V3.079"></path>
			<path fill="#FFFFFF" d="M30.496,48.373v-24.12c0-0.224,0.181-0.406,0.404-0.406     c0.053,0,0.104,0.011,0.149,0.028l6.399,2.164c0.104,0.03,0.215,0.047,0.328,0.047c0.639,0,1.156-0.519,1.156-1.157     c0-0.226-0.064-0.436-0.177-0.614L26.917,5.464L15.139,24.315c-0.112,0.178-0.176,0.388-0.176,0.614     c0,0.638,0.517,1.157,1.156,1.157c0.114,0,0.223-0.017,0.327-0.047l6.343-2.164c0.046-0.017,0.097-0.028,0.149-0.028
			c0.224,0,0.405,0.182,0.405,0.406v24.12H30.496"></path>
		</g>
	</svg>
