<?xml version="1.0" encoding="UTF-8" standalone="no"?><!-- Generator: Gravit.io --><svg xmlns="http://www.w3.org/2000/svg" xmlns:xlink="http://www.w3.org/1999/xlink" style="isolation:isolate" viewBox="-68 -183.5 460 215" width="460pt" height="215pt"><defs><clipPath id="_clipPath_no48oYBMbhCoXTAFjIXDpWd7fIYrUz2a"><rect x="-68" y="-183.5" width="460" height="215"/></clipPath></defs><g clip-path="url(#_clipPath_no48oYBMbhCoXTAFjIXDpWd7fIYrUz2a)"><path d=" M -10.312 -164 L 334.312 -164 C 355.113 -164 372 -147.113 372 -126.312 L 372 -26.188 C 372 -5.387 355.113 11.5 334.312 11.5 L -10.312 11.5 C -31.113 11.5 -48 -5.387 -48 -26.188 L -48 -126.312 C -48 -147.113 -31.113 -164 -10.312 -164 Z " fill="rgb(255,255,255)"/><line x1="372" y1="-124" x2="-48" y2="-20" vector-effect="non-scaling-stroke" stroke-width="30" stroke="rgb(255,0,0)" stroke-linejoin="bevel" stroke-linecap="butt" stroke-miterlimit="3"/><path d=" M -10.366 -163.5 L 334.366 -163.5 C 355.137 -163.5 372 -146.637 372 -125.866 L 372 -26.134 C 372 -5.363 355.137 11.5 334.366 11.5 L -10.366 11.5 C -31.137 11.5 -48 -5.363 -48 -26.134 L -48 -125.866 C -48 -146.637 -31.137 -163.5 -10.366 -163.5 Z " fill="none" vector-effect="non-scaling-stroke" stroke-width="10" stroke-dasharray="0,0,0,0" stroke="rgb(0,0,0)" stroke-linejoin="miter" stroke-linecap="butt" stroke-miterlimit="4"/><path d=" M 47.508 -33.08 L 30.223 -33.08 L 30.223 -69.232 L -1.242 -118.979 L 19.09 -118.979 L 39.305 -84.994 L 59.109 -118.979 L 79.09 -118.979 L 47.508 -69.115 L 47.508 -33.08 Z  M 153.035 -33.08 L 87.703 -33.08 L 87.703 -118.979 L 151.395 -118.979 L 151.395 -104.447 L 105.047 -104.447 L 105.047 -85.404 L 148.172 -85.404 L 148.172 -70.932 L 105.047 -70.932 L 105.047 -47.553 L 153.035 -47.553 L 153.035 -33.08 Z  M 163.348 -61.029 L 163.348 -61.029 L 180.223 -62.67 L 180.223 -62.67 Q 181.746 -54.174 186.404 -50.189 L 186.404 -50.189 L 186.404 -50.189 Q 191.062 -46.205 198.973 -46.205 L 198.973 -46.205 L 198.973 -46.205 Q 207.352 -46.205 211.6 -49.75 L 211.6 -49.75 L 211.6 -49.75 Q 215.848 -53.295 215.848 -58.041 L 215.848 -58.041 L 215.848 -58.041 Q 215.848 -61.088 214.061 -63.227 L 214.061 -63.227 L 214.061 -63.227 Q 212.273 -65.365 207.82 -66.947 L 207.82 -66.947 L 207.82 -66.947 Q 204.773 -68.002 193.934 -70.697 L 193.934 -70.697 L 193.934 -70.697 Q 179.988 -74.154 174.363 -79.193 L 174.363 -79.193 L 174.363 -79.193 Q 166.453 -86.283 166.453 -96.479 L 166.453 -96.479 L 166.453 -96.479 Q 166.453 -103.041 170.174 -108.754 L 170.174 -108.754 L 170.174 -108.754 Q 173.895 -114.467 180.896 -117.455 L 180.896 -117.455 L 180.896 -117.455 Q 187.898 -120.443 197.801 -120.443 L 197.801 -120.443 L 197.801 -120.443 Q 213.973 -120.443 222.146 -113.354 L 222.146 -113.354 L 222.146 -113.354 Q 230.32 -106.264 230.73 -94.428 L 230.73 -94.428 L 213.387 -93.666 L 213.387 -93.666 Q 212.273 -100.287 208.611 -103.187 L 208.611 -103.187 L 208.611 -103.187 Q 204.949 -106.088 197.625 -106.088 L 197.625 -106.088 L 197.625 -106.088 Q 190.066 -106.088 185.789 -102.982 L 185.789 -102.982 L 185.789 -102.982 Q 183.035 -100.99 183.035 -97.65 L 183.035 -97.65 L 183.035 -97.65 Q 183.035 -94.604 185.613 -92.436 L 185.613 -92.436 L 185.613 -92.436 Q 188.895 -89.682 201.551 -86.693 L 201.551 -86.693 L 201.551 -86.693 Q 214.207 -83.705 220.271 -80.512 L 220.271 -80.512 L 220.271 -80.512 Q 226.336 -77.318 229.764 -71.781 L 229.764 -71.781 L 229.764 -71.781 Q 233.191 -66.244 233.191 -58.1 L 233.191 -58.1 L 233.191 -58.1 Q 233.191 -50.717 229.09 -44.271 L 229.09 -44.271 L 229.09 -44.271 Q 224.988 -37.826 217.488 -34.691 L 217.488 -34.691 L 217.488 -34.691 Q 209.988 -31.557 198.797 -31.557 L 198.797 -31.557 L 198.797 -31.557 Q 182.508 -31.557 173.777 -39.086 L 173.777 -39.086 L 173.777 -39.086 Q 165.047 -46.615 163.348 -61.029 Z  M 290.848 -118.979 L 325.242 -33.08 L 306.375 -33.08 L 298.875 -52.592 L 264.539 -52.592 L 257.449 -33.08 L 239.051 -33.08 L 272.508 -118.979 L 290.848 -118.979 Z  M 269.871 -67.064 L 293.309 -67.064 L 281.473 -98.939 L 269.871 -67.064 Z " fill="rgb(0,0,0)"/></g></svg>